<?xml version="1.0" encoding="UTF-8" standalone="no"?>
<!-- Created with Inkscape (http://www.inkscape.org/) -->

<svg
   width="30mm"
   height="30mm"
   viewBox="0 0 30 30"
   version="1.1"
   id="svg12"
   inkscape:version="1.2.1 (9c6d41e410, 2022-07-14)"
   sodipodi:docname="Birb.svg"
   inkscape:export-filename="Birb.png"
   inkscape:export-xdpi="96"
   inkscape:export-ydpi="96"
   xmlns:inkscape="http://www.inkscape.org/namespaces/inkscape"
   xmlns:sodipodi="http://sodipodi.sourceforge.net/DTD/sodipodi-0.dtd"
   xmlns="http://www.w3.org/2000/svg"
   xmlns:svg="http://www.w3.org/2000/svg">
  <sodipodi:namedview
     id="namedview14"
     pagecolor="#ffffff"
     bordercolor="#666666"
     borderopacity="1.0"
     inkscape:showpageshadow="2"
     inkscape:pageopacity="0.0"
     inkscape:pagecheckerboard="0"
     inkscape:deskcolor="#d1d1d1"
     inkscape:document-units="mm"
     showgrid="false"
     inkscape:zoom="4.3137482"
     inkscape:cx="72.326893"
     inkscape:cy="98.869935"
     inkscape:window-width="1274"
     inkscape:window-height="1034"
     inkscape:window-x="0"
     inkscape:window-y="40"
     inkscape:window-maximized="1"
     inkscape:current-layer="layer1" />
  <defs
     id="defs9">
    <inkscape:path-effect
       effect="bspline"
       id="path-effect1512"
       is_visible="true"
       lpeversion="1"
       weight="33.333333"
       steps="2"
       helper_size="0"
       apply_no_weight="true"
       apply_with_weight="true"
       only_selected="false" />
    <inkscape:path-effect
       effect="bspline"
       id="path-effect1026"
       is_visible="true"
       lpeversion="1"
       weight="33.333333"
       steps="2"
       helper_size="0"
       apply_no_weight="true"
       apply_with_weight="true"
       only_selected="false" />
    <inkscape:path-effect
       effect="bspline"
       id="path-effect973"
       is_visible="true"
       lpeversion="1"
       weight="33.333333"
       steps="2"
       helper_size="0"
       apply_no_weight="true"
       apply_with_weight="true"
       only_selected="false" />
  </defs>
  <g
     inkscape:label="Layer 1"
     inkscape:groupmode="layer"
     id="layer1">
    <path
       style="fill:#000000;fill-opacity:1;stroke:#000000;stroke-width:0.264583px;stroke-linecap:butt;stroke-linejoin:miter;stroke-opacity:1"
       d="M 22.850837,10.664437 C 23.372002,10.297642 23.895129,9.9660241 23.632393,9.6373135 23.369656,9.308603 22.320849,8.9826889 22.47991,8.8901154 c 0.15906,-0.092573 1.525999,0.048273 2.216256,0.3155356 0.690256,0.2672627 0.704033,0.6606678 0.858355,0.836911 0.154323,0.176242 0.448969,0.135605 1.063571,0.296996 0.614602,0.161391 1.549031,0.524651 1.369016,0.657298 -0.180016,0.132647 -1.474712,0.03475 -2.76915,-0.06312 -0.958902,0.85062 -1.917768,1.701207 -1.352858,3.23676 0.56491,1.535553 2.653284,3.755598 2.065559,5.967543 -0.587724,2.211945 -3.851347,4.415881 -5.438155,5.339911 -1.586808,0.924031 -1.496634,0.5679 -1.157473,-1.284643 0.339161,-1.852542 0.927275,-5.201381 1.294818,-7.510443 0.367543,-2.309063 0.514486,-3.578228 0.847579,-4.413957 0.333093,-0.835728 0.852244,-1.237673 1.373409,-1.604468 z"
       id="path971"
       inkscape:path-effect="#path-effect973"
       inkscape:original-d="m 22.848795,10.629309 c 0.523402,-0.331359 1.04653,-0.6629762 1.569413,-0.9948712 -1.048604,-0.325668 -2.097411,-0.651582 -3.146543,-0.97778 1.367281,0.141119 2.73422,0.281965 4.100971,0.422555 0.01404,0.393692 0.02782,0.787097 0.04133,1.1802612 0.294918,-0.04038 0.589564,-0.08102 0.883959,-0.121916 0.934714,0.363532 1.869144,0.726791 2.803347,1.089801 -1.294199,-0.09761 -3.883314,-0.293625 -3.883314,-0.293625 0,0 -1.91752,1.701486 -2.876707,2.551859 2.088767,2.220446 4.177141,4.440491 6.265376,6.660405 -3.263487,2.204288 -6.527109,4.408225 -9.791061,6.61194 0.09044,-0.355881 0.180616,-0.712011 0.270526,-1.068414 0.588402,-3.348708 1.176515,-6.697547 1.764376,-10.046717 0.147216,-1.268974 0.294158,-2.538139 0.440845,-3.807642 0.519435,-0.401695 1.038586,-0.803639 1.557482,-1.205856 z"
       sodipodi:nodetypes="ccccccccccccccc" />
    <path
       style="fill:#000000;fill-opacity:1;stroke:#000000;stroke-width:0.264583px;stroke-linecap:butt;stroke-linejoin:miter;stroke-opacity:1"
       d="M 22.322732,17.516785 C 21.83157,16.728044 21.30817,15.590765 20.168735,14.720038 19.029299,13.849311 17.274652,13.246127 15.632415,12.282973 13.990179,11.319819 12.460773,9.9967383 11.51314,9.1293992 10.565508,8.26206 10.200107,7.850823 10.676294,8.6096425 c 0.476186,0.7588195 1.793871,2.6874475 2.90534,3.9438775 1.111469,1.25643 2.197318,1.957267 1.904045,1.947597 -0.293273,-0.0097 -2.258989,-0.739491 -3.604592,-1.47083 -1.345604,-0.731339 -2.3995536,-1.586536 -3.4530599,-2.441373 0.038115,0.07123 0.076342,0.142677 0.7261944,0.93837 0.6498528,0.795694 1.9074285,2.311083 3.7444695,3.410289 1.837042,1.099206 4.251345,1.779997 3.643815,1.584424 -0.60753,-0.195573 -4.236574,-1.267418 -6.191706,-1.874284 -1.9551314,-0.606865 -2.2359079,-0.748742 -2.5163919,-0.890472 1.2991486,1.481905 2.5985179,2.964061 5.1440069,3.714019 2.54549,0.749958 6.337125,0.768217 8.336949,0.932088 1.999824,0.163871 2.207823,0.473049 2.082516,0.407615 -0.125308,-0.06544 -0.583986,-0.505436 -1.075148,-1.294178 z"
       id="path1024"
       inkscape:path-effect="#path-effect1026"
       inkscape:original-d="M 22.354945,17.865265 C 21.831689,16.727989 21.308288,15.590711 20.784382,14.452646 19.029246,13.849467 17.274599,13.246282 15.519389,12.64273 13.990161,11.319839 12.460755,9.9967586 10.930773,8.6731444 10.565525,8.262045 10.200124,7.8508083 9.8343608,7.4391964 11.152538,9.3684226 12.470222,11.297051 13.787795,13.22564 c 0.905265,0.584377 1.991114,1.285213 2.714947,1.752301 -1.31039,-0.486348 -3.276106,-1.216168 -4.914196,-1.824516 -1.053087,-0.854447 -3.1605189,-2.564511 -3.1605189,-2.564511 0,0 0.07644,0.142624 0.114346,0.213704 1.261728,1.520338 2.5193039,3.035727 3.7785969,4.55324 2.414713,0.681097 4.829016,1.361888 7.243199,2.042455 -3.629244,-1.071718 -7.258288,-2.143563 -10.8883089,-3.215883 -0.280244,-0.141478 -0.841452,-0.425189 -0.841452,-0.425189 0,0 2.5985359,2.964045 3.8974459,4.445715 3.79205,0.01852 7.583685,0.03678 11.37513,0.05478 0.208264,0.309443 0.416263,0.618621 0.623998,0.927536 -0.458415,-0.439739 -0.917093,-0.87974 -1.376037,-1.320007 z"
       sodipodi:nodetypes="cccccccccccccccccc" />
  </g>
  <g
     inkscape:groupmode="layer"
     id="layer2"
     inkscape:label="Layer 2">
    <path
       style="fill:#ffffff;fill-opacity:1;stroke:#4c001a;stroke-width:0.264583px;stroke-linecap:butt;stroke-linejoin:miter;stroke-opacity:0"
       d="M 18.810878,29.960461 21.008893,15.980015 9.7935543,16.011121"
       id="path137"
       sodipodi:nodetypes="ccc" />
  </g>
</svg>
